<?xml version="1.0" standalone="no"?>
<!DOCTYPE svg PUBLIC "-//W3C//DTD SVG 20010904//EN"
 "http://www.w3.org/TR/2001/REC-SVG-20010904/DTD/svg10.dtd">
<svg version="1.0" xmlns="http://www.w3.org/2000/svg"
 width="1741.000000pt" height="1741.000000pt" viewBox="0 0 1741.000000 1741.000000"
 preserveAspectRatio="xMidYMid meet">
<metadata>
Created by potrace 1.11, written by Peter Selinger 2001-2013
</metadata>
<g transform="translate(0.000000,1741.000000) scale(0.100000,-0.100000)"
fill="#000000" stroke="none">
<path d="M8687 17174 c-1 -1 -85 -5 -185 -9 -101 -4 -196 -8 -210 -10 -15 -2
-65 -6 -112 -10 -47 -3 -123 -11 -170 -16 -47 -6 -103 -13 -125 -15 -56 -6
-215 -32 -305 -49 -41 -8 -86 -17 -100 -19 -297 -53 -764 -192 -1100 -325
-255 -102 -641 -291 -812 -398 -21 -13 -40 -23 -43 -23 -11 0 -319 -202 -452
-296 -124 -88 -388 -295 -453 -356 -14 -13 -61 -54 -105 -93 -100 -87 -395
-382 -495 -494 -41 -46 -80 -89 -85 -95 -6 -6 -45 -54 -88 -106 -43 -52 -86
-104 -95 -115 -121 -143 -449 -609 -516 -730 -9 -16 -48 -81 -86 -144 -39 -63
-70 -116 -70 -117 0 -2 -33 -63 -74 -136 -231 -417 -454 -937 -627 -1463 -88
-267 -224 -759 -255 -925 -3 -14 -10 -43 -15 -65 -21 -87 -76 -366 -84 -430
-4 -27 -9 -52 -10 -55 -2 -3 -6 -24 -9 -46 -4 -22 -8 -49 -10 -61 -3 -12 -8
-43 -12 -70 -3 -26 -8 -55 -9 -63 -9 -48 -31 -214 -41 -295 -3 -33 -8 -67 -9
-76 -2 -9 -6 -52 -10 -95 -3 -43 -8 -86 -10 -94 -2 -8 -7 -55 -10 -105 -4 -49
-8 -97 -10 -105 -2 -8 -7 -64 -10 -125 -3 -60 -8 -126 -10 -145 -5 -40 -15
-244 -21 -430 -5 -171 -5 -642 1 -825 6 -228 27 -557 50 -790 2 -22 7 -69 10
-105 3 -36 8 -76 10 -90 2 -14 11 -86 20 -160 9 -74 18 -146 21 -160 2 -14 6
-45 10 -70 3 -25 7 -52 9 -60 2 -8 7 -37 10 -65 4 -27 9 -59 12 -70 3 -11 7
-31 8 -45 3 -26 29 -166 70 -375 18 -93 107 -469 125 -530 22 -73 42 -145 44
-157 4 -24 37 -131 98 -323 81 -255 212 -606 298 -800 10 -22 32 -74 50 -115
102 -235 313 -637 473 -900 156 -256 420 -628 569 -802 13 -14 39 -46 58 -70
123 -152 479 -519 649 -668 40 -36 79 -70 85 -76 21 -20 262 -211 341 -270
151 -114 456 -314 595 -391 30 -17 80 -44 110 -61 136 -78 414 -209 610 -290
229 -93 655 -234 774 -256 14 -3 29 -7 34 -10 5 -3 23 -8 41 -11 18 -3 70 -14
114 -25 111 -25 275 -58 334 -66 26 -3 50 -7 53 -9 3 -2 34 -6 70 -10 36 -4
67 -9 70 -10 3 -2 34 -6 69 -10 34 -4 71 -8 81 -10 10 -2 51 -6 92 -10 40 -3
87 -7 103 -9 215 -27 815 -28 1180 -1 101 7 393 43 485 60 14 2 43 7 65 10 44
6 64 9 140 25 28 6 61 12 75 15 318 60 864 222 1097 326 23 11 45 19 48 19 3
0 25 9 48 19 23 10 71 31 107 46 77 32 385 184 485 240 108 59 309 181 420
253 89 58 382 267 395 282 3 3 39 32 80 65 41 32 80 64 86 70 6 5 33 28 59 50
157 130 364 330 546 526 85 91 127 139 213 239 45 53 184 228 227 285 24 33
47 64 52 70 113 148 361 528 440 675 16 30 37 63 45 73 8 9 12 17 7 17 -4 0
-2 7 5 15 32 38 261 497 348 695 150 341 307 782 416 1160 47 165 113 420 122
470 3 14 9 41 14 60 5 19 11 46 14 60 3 14 7 34 10 46 12 56 76 373 81 404 3
19 7 46 10 60 5 25 9 52 20 124 4 21 8 48 11 59 2 11 8 55 14 97 6 42 12 85
14 96 2 10 7 46 11 79 4 32 8 67 10 77 2 9 6 43 10 75 3 32 8 72 10 88 6 43
13 109 21 200 3 44 8 88 9 97 2 9 7 59 10 110 4 51 8 111 10 133 4 41 15 221
20 310 7 121 18 565 18 730 0 169 -12 607 -18 685 -1 19 -6 93 -10 165 -4 71
-8 137 -10 146 -2 9 -6 61 -10 115 -3 55 -8 106 -10 114 -2 8 -7 51 -11 95 -3
44 -8 88 -9 97 -2 9 -6 44 -10 77 -3 33 -7 68 -9 78 -2 10 -7 47 -11 83 -4 36
-9 68 -10 71 -2 3 -6 27 -10 55 -5 44 -18 131 -31 209 -3 17 -7 44 -10 60 -2
17 -15 89 -29 160 -31 165 -33 176 -38 200 -3 11 -12 54 -21 96 -9 42 -18 83
-21 90 -2 8 -6 25 -9 39 -10 56 -88 359 -136 527 -83 288 -225 700 -296 862
-13 29 -24 57 -24 61 0 32 -280 623 -384 810 -19 36 -41 76 -48 90 -18 35
-118 205 -179 302 -100 160 -347 520 -369 538 -3 3 -28 34 -55 70 -310 410
-789 884 -1210 1195 -22 16 -44 33 -50 37 -175 137 -521 350 -800 492 -456
233 -868 384 -1395 511 -88 21 -416 83 -480 90 -25 3 -54 7 -65 10 -11 2 -42
7 -70 10 -296 36 -326 38 -620 50 -175 7 -365 11 -368 9z m321 -1738 c62 -4
123 -9 135 -11 12 -2 47 -6 77 -9 30 -4 66 -8 80 -10 14 -3 59 -10 100 -16
171 -26 419 -86 597 -146 781 -260 1471 -771 2016 -1493 88 -116 223 -308 264
-376 185 -304 197 -326 305 -535 113 -221 221 -466 323 -735 52 -137 159 -451
175 -510 4 -16 24 -88 45 -160 42 -150 74 -270 80 -302 2 -13 13 -60 24 -105
18 -78 53 -236 66 -303 3 -16 8 -41 10 -55 9 -43 74 -433 80 -480 3 -25 8 -63
11 -85 3 -22 7 -51 9 -65 2 -14 6 -54 10 -90 3 -36 7 -76 10 -90 2 -14 7 -59
11 -100 3 -41 7 -87 9 -102 2 -15 7 -78 10 -140 4 -62 9 -129 11 -148 6 -61
17 -449 17 -605 0 -159 -11 -546 -18 -630 -2 -27 -7 -97 -11 -155 -12 -190
-21 -290 -29 -350 -2 -19 -7 -62 -10 -95 -3 -33 -8 -71 -10 -85 -2 -14 -6 -52
-10 -85 -12 -105 -15 -129 -25 -185 -5 -30 -12 -75 -15 -100 -3 -25 -10 -67
-15 -95 -5 -27 -12 -68 -15 -90 -12 -86 -88 -449 -130 -620 -89 -365 -207
-746 -328 -1050 -17 -44 -32 -82 -33 -85 -2 -10 -57 -139 -122 -285 -152 -343
-419 -806 -616 -1071 -17 -23 -40 -55 -51 -70 -46 -64 -193 -244 -259 -319
-162 -181 -275 -292 -483 -474 -256 -223 -704 -501 -1008 -626 -49 -20 -98
-41 -108 -46 -10 -6 -89 -34 -176 -63 -196 -67 -427 -127 -581 -151 -19 -3
-42 -8 -50 -10 -8 -2 -39 -7 -69 -10 -30 -4 -62 -8 -72 -10 -10 -2 -49 -7 -86
-10 -37 -4 -79 -8 -93 -11 -33 -5 -297 -17 -385 -17 -79 0 -345 12 -390 17
-16 2 -57 7 -90 10 -33 4 -85 11 -115 16 -30 5 -77 12 -105 16 -27 3 -52 8
-55 9 -3 2 -24 6 -47 10 -124 18 -406 97 -598 167 -594 217 -1177 618 -1635
1124 -106 117 -126 140 -206 239 -467 579 -853 1315 -1109 2115 -89 277 -95
298 -150 515 -56 218 -69 275 -111 485 -28 143 -31 160 -39 215 -4 22 -8 47
-10 55 -2 8 -7 33 -10 55 -3 23 -7 52 -10 65 -2 13 -9 60 -15 104 -6 45 -13
91 -15 102 -2 12 -6 48 -10 80 -4 33 -8 70 -10 83 -3 13 -7 58 -11 100 -3 42
-8 87 -10 101 -1 14 -6 61 -9 105 -4 44 -8 100 -11 125 -27 289 -26 1195 1
1515 2 28 7 82 10 120 9 121 15 189 19 230 3 22 8 67 11 100 17 158 55 436 71
518 2 12 6 39 9 62 10 75 72 395 101 520 5 23 13 59 20 94 3 14 25 101 50 195
24 94 46 180 49 192 12 54 129 425 161 512 59 164 136 365 157 412 10 25 25
59 32 75 58 137 88 201 160 345 198 399 387 704 625 1010 105 134 111 141 198
240 165 186 414 426 561 540 183 142 447 322 495 339 6 2 18 9 26 16 28 24
307 162 445 221 227 95 620 211 815 239 24 4 47 8 50 10 3 1 30 6 61 9 31 4
65 8 76 10 60 12 156 21 323 32 63 3 116 7 117 8 6 5 361 -2 461 -8z"/>
<path d="M5681 9820 c-4 -3 -7 -396 -6 -875 l0 -870 3005 0 3005 0 0 875 0
875 -2998 0 c-1650 0 -3002 -2 -3006 -5z"/>
</g>
</svg>
